Patient4_TMGait_0pt4_02_left_10_EMG.mot
version=1
nRows=30
nColumns=33
inDegrees=no
endheader
time	1LAddLong	2LGlutMax	3LGlutMed	4LIliopsoas	5LSemiMemb	6LBicFemLong	7LRecFem	8LVastMed	9LVastLat	10LGasMed	11LTibAnt	12lTibPost	13LPeroneusLong	14LSol	15LExtDigLong	16LFlexDigLong	17RAddLong	18RGlutMax	19RGlutMed	20RIliopsoas	21RSemiMemb	22RBicFemLong	23RRecFem	24RVastMed	25RVastLat	26RGasMed	27RTibAnt	28RTibPost	29RPeroneusLong	30RSol	31RExtDigLong	32RFlexDigLong
13.34	0.00351	0.32028	-0.016327	0.011292	-0.020905	0.00473	0.031433	0.005646	-0.16205	0.032349	0.13245	0.001984	-0.031586	-0.046692	0.26459	0.003357	0.022736	-0.13901	0.19592	-0.042877	-0.072174	-0.11749	0.053406	-0.065613	0.062408	-0.008545	0.054779	0.005341	0.15778	-0.20477	-0.001678	-0.004272
13.341	-0.002289	0.28458	-0.00412	0.015564	0.001373	-0.011749	0.031281	0.001373	-0.168	-0.026855	0.14938	0.007629	0.009766	-0.02655	-0.11078	0.004578	0.012054	-0.15152	0.5661	-0.071716	-0.052643	-0.13199	0.21332	-0.026855	-0.000458	-0.009155	0.082092	-0.007935	1.3408	-0.17288	0.001678	-0.006714
13.342	0.005951	0.23651	-0.021973	-0.005493	0.039673	-0.004425	0.025177	0.010071	-0.15839	-0.098724	0.16327	0.002441	0.068054	-0.041351	-0.33783	-0.009308	-0.003052	-0.15228	-0.15595	-0.020447	-0.029297	-0.12375	0.17838	-0.039825	-0.01236	-0.001831	0.4538	-0.016785	0.84961	-0.21698	-0.003815	-0.002747
13.343	0.007172	0.215	-0.002136	0.033569	0.042419	0.0177	0.010834	0.00412	-0.16571	-0.053711	0.067902	0.012665	0.084076	-0.037079	-0.3717	-0.020599	0.003204	-0.14374	-0.39612	0	-0.041351	-0.12207	0.20721	-0.06424	-0.002899	-0.005798	0.61066	-0.012512	1.774	-0.16296	-0.001221	0.00061
13.344	0.010986	0.20905	0.027313	0.011292	0.01236	0.055389	-0.000458	0.009766	-0.16037	-0.01358	0.019989	0.000916	0.043182	-0.039673	-0.22064	-0.011597	0.012512	-0.025024	-0.046234	0.007324	-0.030823	-0.067444	0.19791	-0.001678	0.018158	-0.001678	0.17227	-0.01358	1.3223	-0.12131	-0.00061	0.003662
13.345	0.00351	0.19089	0.014648	0.015564	0.01297	0.048828	-0.014801	0.016937	-0.13794	0.000305	-0.016785	0.016022	0.077972	-0.038147	-0.14526	0.012512	0.010529	-0.071564	0.55145	-0.019531	-0.036926	-0.0383	0.17227	0.066681	0.054474	0.000916	-0.26459	-0.014496	-0.85877	-0.19745	-0.001678	0.001068
13.346	0.002747	0.16007	-0.005798	0.012512	0.009613	0.059052	-0.034485	0.014343	-0.1474	0.009918	0.014648	0.004425	0.076447	-0.045929	-0.02533	-0.012512	0.010071	-0.13123	0.57083	-0.042725	-0.032043	-0.008087	0.23483	0.058746	0.011444	0.003967	-0.392	-0.00946	-1.2859	-0.14313	-0.002289	0
13.347	-0.00351	0.18249	0.007629	0.012207	0.024719	0.033417	-0.020752	0.0177	-0.1416	0.002289	0.097656	0.001373	0.011139	-0.097046	0.066528	0.009308	0.005188	-0.14191	0.20584	0.005341	-0.036316	0.021667	0.14725	-0.014496	-0.037689	0.003662	-0.67093	-0.009766	-0.19287	-0.12619	-0.001373	0.002136
13.348	0.005188	0.10864	-0.005341	0.00885	0.025482	0.039673	-0.024719	0.008698	-0.12116	-0.024261	-0.17364	0.00412	0.019226	-0.076599	-0.00412	-0.002136	-0.000153	-0.11475	-0.36636	0.003357	-0.036469	0.050812	0.063934	-0.033417	-0.1471	0.004272	-0.68161	-0.007477	0.16632	-0.12833	-0.000153	0.00061
13.349	-0.002289	0.099945	-0.022736	0.012207	0.03479	0.03418	-0.009003	0.003815	-0.11429	-0.026245	-0.052338	0.00946	0.014801	-0.1004	0.048828	0.004883	0.022888	-0.11017	-0.29297	-0.032959	-0.025787	0.061188	0.13382	-0.23972	-0.15472	0.005035	-0.46799	-0.006714	0.74341	-0.10544	-0.002441	0.002899
13.35	0.012207	0.054779	-0.035095	0.015869	0.005951	0.036621	-0.01236	0.006256	-0.099182	-0.015564	-0.013733	0.001526	0.019073	-0.092926	0.059052	0.006714	0.013885	0.025177	-0.18341	-0.0354	-0.033264	0.065002	0.041351	-0.29739	-0.10422	0.000305	-0.086212	-0.016632	0.65933	-0.072632	-0.001678	0.005798
13.351	0.002899	0.052643	-0.051575	0.004272	0.006561	0.028687	-0.008087	0.01297	-0.098572	0.001984	0.005646	0.000763	-0.018768	-0.087891	0.17258	0.006409	0.005951	0.095978	0.33691	-0.11002	-0.034637	0.058441	-0.16281	-0.17487	-0.10101	-0.000153	0.13382	-0.010223	-1.4586	-0.044098	-0.002899	0.00351
13.352	0.006866	0.028381	0.002441	0.012817	0.00412	0.028076	0.006866	0.009766	-0.093842	0.021973	-0.036163	0.004883	-0.037231	-0.073242	0.16342	0.010529	-0.010834	0.066223	0.81986	-0.12238	-0.015411	0.10574	-0.28336	0.02594	-0.098877	-0.002441	0.11215	-0.010986	-1.196	0.014648	-0.004272	0.000916
13.353	0.005035	0.019684	0.01297	0.000458	-0.026398	-0.005035	0.000153	0.014343	-0.10193	-0.008087	-0.043793	0.002441	0.026855	-0.17578	0.081787	0.00885	-0.013428	-0.037384	0.45303	-0.093689	0.002136	0.086975	-0.31052	0.24048	-0.045166	-0.011749	0.35355	-0.009155	-0.035553	0.19943	-0.003052	-0.005341
13.354	0.005341	-0.029144	-0.008392	0.011444	-0.022278	-0.022888	-0.012512	0.007324	-0.13016	-0.013428	-0.007477	0.004578	0.092773	-0.11719	0.050049	0.008087	-0.007477	-0.10986	0.9523	-0.077209	0.001831	0.08255	-0.21378	0.26352	0.055084	-0.006256	0.32349	-0.011139	0.046844	0.28275	-0.002289	-0.006409
13.355	0.006714	-0.055695	-0.054779	0.013123	0.002441	-0.019989	-0.001526	0.007324	-0.16357	0.003815	0.027313	0.005188	0.07431	-0.024719	0.023804	0.007782	0.000153	-0.16464	0.4953	-0.058136	-0.01297	0.070496	-0.15472	0.20187	-0.002136	0.003815	0.21713	-0.010681	-0.23529	0.14801	-0.00351	-0.014954
13.356	0.010071	-0.094757	-0.054169	0.014648	0.012054	-0.007172	-0.01709	0.009308	-0.20569	0.005646	0.021362	0.001373	0.049591	-0.11719	-0.005951	-0.000763	-0.000305	-0.18662	0.16281	0.028076	-0.027924	0.085602	-0.15747	0.090485	-0.012665	0.010223	-0.041962	0.004425	0.50095	-0.027771	-0.000458	-0.009918
13.357	0.00351	-0.10178	-0.059814	0.015259	0.003052	0.004578	-0.013275	0.003662	-0.2449	-0.014648	0.004272	0.006866	0.044556	-0.029755	-0.014954	0.020447	0.018158	-0.15259	0.30197	0.1268	-0.040588	0.049438	-0.16174	-0.039673	0.006104	0.015259	-0.15869	0.009003	-0.17502	-0.1297	-0.00946	-0.007935
13.358	0.007172	-0.12131	-0.024567	0.011444	-0.011444	0.011292	0.006104	0.004425	-0.26886	-0.007019	-0.003815	0.005493	0.047302	-0.085602	-0.001678	0.00885	0.007935	-0.17807	0.62561	0.000153	-0.03952	0.05722	-0.16037	0.1445	0.16144	0.006104	-0.43701	0	-0.31616	-0.10513	-0.001526	-0.010834
13.359	0.009918	-0.15518	-0.039368	0.01297	-0.018768	0.034637	0.01358	0.002441	-0.32471	-0.02243	-0.001221	-0.005035	0.039978	-0.058746	0.015717	-0.000916	-0.001831	-0.23102	0.72022	0.020294	-0.044403	0.065002	-0.18143	0.16235	0.14603	-0.017548	-0.28015	-0.003815	1.5871	0.19226	0.000305	-0.014801
13.36	-0.001068	-0.14618	-0.030975	-0.000916	-0.016479	0.015717	-0.00473	0.002289	-0.35126	-0.026855	0.028992	0.002594	0.033264	-0.074768	0.036163	0.001068	0.007935	-0.22171	0.48172	0.15366	-0.043793	0.063477	-0.17609	0.06897	0.011749	-0.026093	-0.073547	-0.004425	0.44235	0.15015	0.005646	-0.005646
13.361	0.005341	-0.14786	-0.039063	-0.005188	-0.02121	0.027466	-0.005798	0.003815	-0.38025	-0.03067	0.031586	0.007629	0.042572	-0.11169	0.023041	0.004272	0.011139	-0.26321	0.15564	0.16007	-0.034485	0.072327	-0.059204	0.035706	0.024261	-0.018921	-0.066071	0.000305	-0.25131	0.049286	-0.001831	-0.010223
13.362	0.003052	-0.16312	-0.083466	0.009613	-0.043793	0.019379	-0.014801	0.001831	-0.4126	-0.036621	-0.009003	-0.00351	0.045624	-0.20065	0.009613	-0.002136	0.007019	-0.38422	-0.34363	0.093384	-0.025024	0.089569	-0.077057	-0.054932	-0.041199	-0.021515	0.20752	-0.001068	-0.59616	0.002747	0.001068	-0.006256
13.363	-0.001526	-0.15793	-0.08194	-0.003967	-0.03067	0.009766	-0.001526	0.002899	-0.40207	-0.048981	-0.01358	0.003662	0.034332	-0.25482	-0.000153	0.002899	0.011292	-0.32959	-0.51239	0.055695	-0.027161	0.10178	-0.10437	-0.13062	-0.070648	-0.016632	0.45059	-0.000916	-0.53787	-0.05249	-0.004883	-0.005951
13.364	0.007019	-0.15945	-0.079651	-0.000458	-0.028839	-0.002747	-0.002289	-0.001678	-0.39978	-0.044556	-0.023499	-0.000153	0.036163	-0.13473	0.000458	0.006409	0.004883	-0.25055	-0.48874	0.057373	-0.029602	0.083466	-0.18524	-0.067596	0.030975	-0.011749	0.2211	-0.001373	-0.46478	0.022888	-0.003815	-0.004272
13.365	0.002594	-0.15579	-0.034027	-0.001984	-0.017853	0.012512	0.000153	-0.001831	-0.38666	-0.034485	0.039978	0.001068	0.046082	0.042419	-0.006409	0.002747	-0.000153	-0.29633	-0.2475	0.10544	-0.014496	0.055847	-0.13748	-0.032654	0.055237	-0.005646	-0.30746	0.001831	-0.17242	-0.000305	-0.002441	0.001373
13.366	0.002289	-0.20264	0.065002	-0.002289	-0.016785	0.039215	-0.00473	-0.002136	-0.37109	-0.028534	0.093231	0.007629	0.018616	0.10452	0.000458	-0.002136	0.002441	-0.34378	-0.073395	0.12772	-0.035553	0.06073	-0.021667	-0.041199	-0.020294	-0.000458	-0.45837	0.012207	0.48523	-0.06897	-0.000458	0.003662
13.367	-0.00351	-0.21515	0.055084	-0.00351	-0.042725	0.03479	-0.01297	-0.000763	-0.35675	-0.025177	0.11093	-0.002441	-0.021057	0.048523	0.006714	0.000305	0.00946	-0.31876	0.91492	-0.034332	-0.06897	0.081635	0.055847	0.075989	-0.091553	0.008545	-0.1535	0.002289	0.90485	-0.11475	-0.002136	0.000916
13.368	-0.001678	-0.20142	0.065308	-0.001678	-0.073853	0.031433	-0.023956	0.003052	-0.31662	-0.028381	0.13641	0.005188	-0.027466	0.044556	0.013733	0.007629	0.029144	-0.27313	0.69794	-0.007782	-0.14587	0.12421	0.10544	0.057068	-0.13062	0.014648	-0.18784	-0.000153	0.54657	-0.1355	-0.00351	0
13.369	-0.002747	-0.20126	0.039673	0.012665	-0.046997	0.022125	-0.021515	-0.009766	-0.25101	-0.056763	0.12573	0.003052	-0.010834	0.03418	0.001678	0.000916	0.022125	-0.27405	0.55023	-0.063934	-0.06073	0.084076	0.006409	0.058441	-0.086365	0.003967	0.095825	0.005035	-0.097351	-0.054626	-0.002441	-0.004425
